<svg   width="42" height="42" xmlns="http://www.w3.org/2000/svg" xmlns:xlink="http://www.w3.org/1999/xlink" version="1.1" x="0px" y="0px"
     viewBox="472 366.8 100 100" style="enable-background:new 472 366.8 100 100;" xml:space="preserve"><g><g><path d="M554.5,393c-0.5-0.7-1.5-1.6-2.4-2c-0.7-0.3-2.8,0-3.2-0.3c-0.5-0.3,0.2-1.6,0.2-2.8c0-1.4-0.5-2.7-1.2-3.9    c-3.6-6.1-11.5-1.6-16.2,0.6c-6.1,2.9-11.6,8-10.1,15.2c-0.3,0.2-0.5,0.5-0.5,1c-0.2,5-0.5,9.4,3.3,12.8    c-3.5,0.6-6.9-0.3-10.5-0.5c-3.1-0.1-6.2,0.2-9.2,0.7c-2.9,0.6-5.9,2.4-8.8,2.7c-4.4,0.5-7.7-4.2-10.5-6.9c-0.8-0.8-2,0-1.8,1    c1.8,8.8,6,16.9,7.6,25.8c0.7,4.1,1.2,8.2,1.9,12.3c0.5,3,0.7,7,3.2,9.1c0.3,0.2,0.6,0.4,1,0.3c2.3-0.9,2.4-3.1,2.7-5.5    c0.4-3.3,0.2-6.5,0.3-9.7c1.3,6.5,3.6,15.8,6.6,14.3c3.3-1.6,2-10.4,1.9-13.1c-0.1-2.7-0.9-6.4-0.2-9.1c-0.5-1.4-0.1-2.2,1.2-2.3    c0.9-0.6,1.8-0.7,2.8-0.5c1.4-0.1,2.8,0.2,4.1,0.3c1.6,0.1,5.2-0.6,6.3,0.2c1.7,1.3,1.9,7.9,2.4,10c0.5,2.7,0.4,9.9,3.8,11.2    c2.9,1.1,3.7-2.3,4.1-4.3c0.8-4.5-0.5-10.1,0.6-14.7c0.9,4.2,1.9,8.5,2.9,12.6c0.7,2.5,1.4,4.7,4.1,5.3c0.5,0.1,1.2-0.1,1.4-0.6    c2.5-5.8,2-12.4,2.4-18.7c0.4-7.1-1.1-17.3,4.3-22.8c0.3-0.3,0.5-0.7,0.4-1.1C553.1,405.5,558.7,398.5,554.5,393z M552.9,400.8    c-1.1,2.8-3.2,5-4.5,7.6c-0.4-0.1-0.9,0-1.3,0.4c-5.4,6-4.4,16.3-4.8,23.9c-0.1,2,0.2,15.9-2.6,15.1c-0.6-0.2-1.7-6.8-1.9-7.7    c-0.8-3.2-1.4-6.4-2.3-9.6c-0.3-1-1.7-1.2-2.2-0.3c-3.2,5.1-1.3,10.9-1.8,16.6c-0.2,3-0.7,5.9-2.8,2.2c-0.8-1.5-0.9-4-1.2-5.7    c-0.9-4.1-1.8-8.2-2.7-12.4c-0.1-0.5-0.6-0.7-1.1-0.6c-3.2,0.8-6.2,0.6-9.5,0.3c-1.7-0.1-4.2-0.6-5.8,0.1    c-2.4,1.1-1.7,3.7-1.7,6.1c0,1.7,1.4,16.8-0.2,17.2c-2.1,0.5-5-15.4-5.5-17.2c-0.2-0.9-1.6-0.9-1.8,0c-1.2,4.7-0.7,9.2-1,14    c-0.1,1.4,0,4.5-2.2,2.5c-0.7-0.7-0.7-3.4-0.8-4.3c-0.4-2.6-0.8-5.3-1.2-7.9c-0.7-5-1.6-10-3.1-14.8c-1.4-4.3-3-8.4-4.3-12.7    c0.8,0.8,1.6,1.6,2.5,2.4c0.9,0.9,2.5,3.1,3.9,3.4c2.3,0.5,5-1.5,7.1-2.3c4.4-1.5,9.1-2.1,13.8-2c4,0.1,7.8,1.3,11.8,0.3    c0.3-0.1,0.5-0.3,0.7-0.5c2.1,1.3,4.6,2,6.6,0.1c3.1-2.9,1.3-7.7,0.4-11c-0.9-3.3-1-7.1-1.6-10.5c-0.2-1.1-1.6-0.7-1.7,0.2    c-0.4,3.5-0.2,6.8,0.8,10.3c0.5,1.8,1.4,3.5,1.2,5.5c-0.3,2.7-2.6,4.8-5.1,3.2c-4.6-2.9-3.7-7.7-3.3-12.1c0.1-1.1-1-1.5-1.8-1.2    c1.3-6.1,6.3-10.4,11.8-13.1c2.8-1.4,6.2-3.6,9.5-2.9c4.3,0.9,3,4.7,2.3,7.8c-0.2,0.7,0.2,1.4,0.9,1.6c0.5,0.1,1,0.1,1.4,0.2    c2.4-0.8,4.3,0.1,5.6,2.8C553.9,397.8,553.7,399.4,552.9,400.8z"></path><path
  d="M545,394.2c-0.7,0.5-1.4,1-2,1.6c-0.6,0.6-0.7,1.1-0.8,1.9c0,0,0,0,0,0c0.7-0.1,1.2-0.2,1.8-0.5c0.6-0.4,1.2-0.7,1.9-0.9    C547.5,395.7,546.3,393.4,545,394.2z"></path><path
  d="M488.3,407.5c0.4,0.4,0.8,0.7,1.2,1.1c0.5,0.5,0.8,0.9,1.5,1.1c0.7,0.2,1.2-0.7,0.7-1.2c-0.4-0.4-0.7-0.5-1.1-0.7    c-0.4-0.2-0.8-0.7-1.2-1.1c-0.3-0.3-0.7-0.5-1-0.9c-0.8-1.2-1.1-1.9-1.5-1.5c0,0,0,0,0,0c-0.2,0.6,0.1,1,0.2,1.6    C487.4,406.6,487.9,407,488.3,407.5z"></path><path
  d="M491.1,405.9c0.2,0.2,0.4,0.4,0.7,0.6c0.3,0.3,0.5,0.5,0.9,0.7c0.4,0.1,0.7-0.4,0.4-0.7c-0.2-0.2-0.4-0.3-0.6-0.4    c-0.2-0.1-0.5-0.4-0.7-0.6c-0.2-0.2-0.4-0.3-0.6-0.5c-0.4-0.7-0.7-1.1-0.9-0.9c0,0,0,0,0,0c-0.1,0.3,0.1,0.6,0.1,0.9    C490.6,405.3,490.9,405.6,491.1,405.9z"></path></g></g></svg>
